<svg width="24" height="24" viewBox="0 0 24 24" fill="none" xmlns="http://www.w3.org/2000/svg">
<path d="M16.6641 2.40234C15.6938 3.30469 14.8125 4.25391 14.0344 5.20781C12.7547 3.45094 11.1656 1.66406 9.375 0C4.76953 4.27125 1.5 9.84375 1.5 13.2C1.5 19.1672 6.19687 24 12 24C17.8031 24 22.5 19.1672 22.5 13.2C22.5 10.7063 20.0625 5.55469 16.6641 2.40234ZM15.7547 18.3703C14.7375 19.0781 13.4906 19.5 12.1359 19.5C8.75484 19.5 6 17.2627 6 13.6312C6 11.8205 7.13625 10.2262 9.40969 7.5C9.73781 7.875 14.0447 13.3781 14.0447 13.3781L16.793 10.2431C16.9863 10.5595 17.1617 10.8769 17.3198 11.1759C18.6047 13.6219 18.0656 16.7531 15.7547 18.3703Z" fill="#F25187"/>
</svg>
