<svg width="24" height="24" viewBox="0 0 24 24" fill="none" xmlns="http://www.w3.org/2000/svg">
<g clip-path="url(#clip0_18:213)">
<path d="M15.75 21H0.75C0.339844 21 0 21.3398 0 21.75V23.25C0 23.6602 0.339844 24 0.75 24H15.75C16.1602 24 16.5 23.6602 16.5 23.25V21.75C16.5 21.3375 16.1625 21 15.75 21ZM23.1188 5.025L19.3233 1.22953C19.0303 0.942422 18.5498 0.942422 18.263 1.22953L17.7295 1.76297C17.4424 2.05008 17.4424 2.53078 17.7295 2.82328L19.4991 4.58719V7.5C19.4991 8.81812 20.4778 9.90234 21.7491 10.0898V17.625C21.7491 18.2461 21.2452 18.75 20.6241 18.75C20.003 18.75 19.4991 18.2461 19.4991 17.625V16.125C19.4991 13.8455 17.6531 12 15.3741 12H15.0413V3C15.0413 1.34766 13.6936 0 12.0413 0H4.5C2.84766 0 1.5 1.34766 1.5 3V19.5H15L15 14.25H15.375C16.4119 14.25 17.25 15.0881 17.25 16.125V17.4258C17.25 19.1953 18.5156 20.8008 20.2734 20.9883C22.2891 21.1875 24 19.6055 24 17.625V7.15313C24 6.35625 23.6813 5.5875 23.1188 5.025ZM12 9H4.5V3H11.9578V9H12Z" fill="#F25187"/>
</g>
<defs>
<clipPath id="clip0_18:213">
<rect width="24" height="24" fill="white"/>
</clipPath>
</defs>
</svg>
