<svg width="24" height="24" viewBox="0 0 24 24" fill="none" xmlns="http://www.w3.org/2000/svg">
<g clip-path="url(#clip0_18:215)">
<path d="M22.5 12C21.6717 12 21 12.6708 21 13.5C21 15.9816 18.9816 18 16.5 18H9V16.125C9 15.6812 8.73853 15.2785 8.33297 15.0966C7.92656 14.9203 7.45312 14.9906 7.12031 15.2906L3.37031 18.6656C3.13547 18.8766 3 19.1813 3 19.5C3 19.8188 3.13552 20.1225 3.37209 20.3363L7.12209 23.7113C7.33125 23.9016 7.60313 24 7.875 24C8.03025 24 8.18508 23.9678 8.33231 23.9034C8.7375 23.7235 9 23.3203 9 22.875V21H16.5C20.6353 21 24 17.6353 24 13.5C24 12.6703 23.3297 12 22.5 12ZM7.5 6.00002H14.9578L15 7.87502C15 8.31887 15.2615 8.72158 15.667 8.90345C15.8156 8.9672 15.9703 9.00002 16.0828 9.00002C16.3552 9.00002 16.6252 8.9004 16.8361 8.71145L20.5861 5.33645C20.8641 5.12345 21 4.81877 21 4.45783C21 4.09689 20.8645 3.83533 20.6279 3.62158L16.8779 0.246578C16.5476 -0.0492974 16.0721 -0.122563 15.6671 0.0546713C15.2625 0.278359 14.9578 0.681109 14.9578 1.12502L15 3.00002H7.5C3.36469 3.00002 0 6.36564 0 10.5C0 11.3292 0.671719 12 1.5 12C2.32828 12 3 11.3292 3 10.5C3 8.02033 5.02031 6.00002 7.5 6.00002Z" fill="#F25187"/>
</g>
<defs>
<clipPath id="clip0_18:215">
<rect width="24" height="24" fill="white"/>
</clipPath>
</defs>
</svg>
