<svg width="24" height="24" viewBox="0 0 24 24" fill="none" xmlns="http://www.w3.org/2000/svg">
<g clip-path="url(#clip0_18:175)">
<path d="M23.6765 0.906094C23.6203 0.642656 23.3625 0.38475 23.1 0.326156C21.5906 0.00390469 20.414 0 19.2375 0C14.4 0 11.4984 2.58984 9.32808 6H4.44652C3.67918 6 2.77683 6.55781 2.43699 7.24219L0.116817 11.8687C0.0465041 12.0281 0.00549316 12.1969 -0.000366211 12.375C-0.000366211 12.9961 0.50354 13.5 1.08245 13.5H5.95276L4.94058 14.5547C4.40714 15.0881 4.37339 16.0664 4.94058 16.6758L7.32511 19.0603C7.84636 19.582 8.83074 19.6758 9.44621 19.0603L10.5009 18.0056L10.4578 22.875C10.4578 23.4961 10.9617 24 11.5406 24C11.7164 23.9941 11.8833 23.9531 12.0417 23.8828L16.6687 21.5681C17.354 21.2224 17.9123 20.3259 17.9123 19.5581L17.9153 14.6597C21.3137 12.4917 23.8731 9.57844 23.8731 4.76906C24.0046 3.58594 24.0046 2.41219 23.6765 0.906094ZM17.9578 7.875C16.9687 7.875 16.125 7.03688 16.125 6C16.125 4.96312 16.9265 4.125 17.9578 4.125C18.9946 4.125 19.7906 4.96312 19.7906 6C19.7906 7.03688 19.0359 7.875 17.9578 7.875Z" fill="#F25187"/>
</g>
<defs>
<clipPath id="clip0_18:175">
<rect width="24" height="24" fill="white"/>
</clipPath>
</defs>
</svg>
