<svg width="122" height="203" viewBox="0 0 122 203" fill="none" xmlns="http://www.w3.org/2000/svg">
<path d="M61 107L84.3827 168.5H37.6173L61 107Z" fill="#BECED5"/>
<mask id="mask0_13:176" style="mask-type:alpha" maskUnits="userSpaceOnUse" x="7" y="0" width="108" height="161">
<path d="M7.4905 101.507C5.05339 124.306 12.4905 160.007 12.4905 160.007H108.99C108.99 160.007 116.875 122.431 113.99 98.5073C108.773 55.2313 88.9905 0.761126 61.4905 0.00732113C33.9905 -0.746484 12.2628 56.8628 7.4905 101.507Z" fill="#C4C4C4"/>
</mask>
<g mask="url(#mask0_13:176)">
<rect x="7" width="108" height="160" fill="url(#paint0_linear_13:176)"/>
<ellipse cx="61" cy="-3" rx="100" ry="50" fill="url(#paint1_linear_13:176)"/>
<circle cx="61" cy="98" r="30" fill="url(#paint2_linear_13:176)"/>
<circle cx="61" cy="98" r="23" fill="url(#paint3_linear_13:176)"/>
</g>
<path d="M0.167739 150C1.66773 145.5 28.1677 140.682 30.1677 142.5C32.1677 144.318 31.1677 169.382 30.1677 170C29.1677 170.618 16.1677 167.5 13.1677 170C10.1677 172.5 11.6678 202.5 9.66774 202.5C7.66773 202.5 -1.33225 154.5 0.167739 150Z" fill="url(#paint4_linear_13:176)"/>
<path d="M121.155 149.894C119.655 145.394 93.1547 140.576 91.1547 142.394C89.1547 144.212 90.1547 169.276 91.1547 169.894C92.1547 170.512 105.155 167.394 108.155 169.894C111.155 172.394 109.655 202.394 111.655 202.394C113.655 202.394 122.655 154.394 121.155 149.894Z" fill="url(#paint5_linear_13:176)"/>
<defs>
<linearGradient id="paint0_linear_13:176" x1="61" y1="45.5" x2="61" y2="160" gradientUnits="userSpaceOnUse">
<stop stop-color="#DDE7EC"/>
<stop offset="1" stop-color="#CBD8DD"/>
</linearGradient>
<linearGradient id="paint1_linear_13:176" x1="89" y1="18" x2="23" y2="40.5" gradientUnits="userSpaceOnUse">
<stop stop-color="#F24B90"/>
<stop offset="1" stop-color="#EF2D69"/>
</linearGradient>
<linearGradient id="paint2_linear_13:176" x1="89" y1="92.5" x2="34" y2="103.5" gradientUnits="userSpaceOnUse">
<stop stop-color="#F24B90"/>
<stop offset="1" stop-color="#EF2D69"/>
</linearGradient>
<linearGradient id="paint3_linear_13:176" x1="84" y1="92.5" x2="38" y2="100.5" gradientUnits="userSpaceOnUse">
<stop stop-color="#4C3093"/>
<stop offset="1" stop-color="#332969"/>
</linearGradient>
<linearGradient id="paint4_linear_13:176" x1="49.5" y1="162" x2="-4.5" y2="199" gradientUnits="userSpaceOnUse">
<stop stop-color="#F24A8F"/>
<stop offset="1" stop-color="#EF2D69"/>
</linearGradient>
<linearGradient id="paint5_linear_13:176" x1="121" y1="159" x2="67" y2="198.5" gradientUnits="userSpaceOnUse">
<stop stop-color="#F24A8F"/>
<stop offset="1" stop-color="#EF2D69"/>
</linearGradient>
</defs>
</svg>
