<svg width="24" height="24" viewBox="0 0 24 24" fill="none" xmlns="http://www.w3.org/2000/svg">
<path d="M22.8 9.59999H21.6C20.9374 9.59999 20.4 10.1374 20.4 10.8V18C20.4 18.6626 20.9374 19.2 21.6 19.2H22.8C23.4626 19.2 24 18.6626 24 18V10.8C24 10.1362 23.4638 9.59999 22.8 9.59999ZM16.3013 8.19374C15.9825 7.93874 15.5887 7.79999 15.18 7.79999H12.3V6.59999H14.7C15.1988 6.59999 15.6 6.19874 15.6 5.69999C15.6 5.20274 15.1988 4.79999 14.7 4.79999H8.1C7.60125 4.79999 7.2 5.20274 7.2 5.69999C7.2 6.19874 7.60125 6.59999 8.1 6.59999H10.5V7.79999H4.8C3.80625 7.79999 3 8.60624 3 9.59999V11.1H1.8V8.09999C1.8 7.60124 1.39688 7.19999 0.9 7.19999C0.403125 7.19999 0 7.60124 0 8.09999V15.9C0 16.3987 0.403125 16.8 0.9 16.8C1.39688 16.8 1.8 16.3969 1.8 15.9V12.9H3V15C3 15.9937 3.80625 16.8 4.8 16.8H6.35175L8.22488 18.6731C8.56125 19.0087 9.01875 19.2 9.49875 19.2H17.4C18.3941 19.2 19.2 18.3941 19.2 17.4V10.7662C19.2 10.5842 19.1172 10.4119 18.975 10.2982L16.3013 8.19374ZM7.2 12.9C6.70125 12.9 6.3 12.4987 6.3 12C6.3 11.5027 6.70313 11.1 7.2 11.1C7.69688 11.1 8.1 11.5012 8.1 12C8.1 12.4987 7.69875 12.9 7.2 12.9ZM10.8 12.9C10.3013 12.9 9.9 12.4987 9.9 12C9.9 11.5027 10.3031 11.1 10.8 11.1C11.2969 11.1 11.7 11.5012 11.7 12C11.7 12.4987 11.2988 12.9 10.8 12.9ZM14.4 12.9C13.9031 12.9 13.5 12.4969 13.5 12C13.5 11.5027 13.9031 11.1 14.4 11.1C14.8969 11.1 15.3 11.5012 15.3 12C15.3 12.4987 14.8988 12.9 14.4 12.9Z" fill="#F25187"/>
</svg>
