<?xml version="1.0" standalone="no"?>
<!DOCTYPE svg PUBLIC "-//W3C//DTD SVG 20010904//EN"
 "http://www.w3.org/TR/2001/REC-SVG-20010904/DTD/svg10.dtd">
<svg version="1.0" xmlns="http://www.w3.org/2000/svg"
 width="1300.000000pt" height="808.000000pt" viewBox="0 0 1300.000000 808.000000"
 preserveAspectRatio="xMidYMid meet">

<g transform="translate(0.000000,808.000000) scale(0.100000,-0.100000)"
fill="#000000" stroke="none">
<path d="M0 4040 l0 -4040 6500 0 6500 0 0 4040 0 4040 -6500 0 -6500 0 0
-4040z m5708 3628 c7 -7 12 -21 12 -33 0 -12 -5 -26 -12 -33 -7 -7 -21 -12
-33 -12 -12 0 -26 5 -33 12 -7 7 -12 21 -12 33 0 12 5 26 12 33 7 7 21 12 33
12 12 0 26 -5 33 -12z m-1520 -10 c28 -28 7 -78 -32 -78 -33 0 -48 15 -48 45
0 41 51 62 80 33z m7472 -8 c0 -13 -7 -20 -20 -20 -13 0 -20 7 -20 20 0 13 7
20 20 20 13 0 20 -7 20 -20z m-2471 -74 c9 -10 8 -16 -4 -26 -19 -16 -41 1
-32 24 8 20 21 20 36 2z m1441 -45 c14 -27 13 -37 -6 -55 -40 -40 -101 3 -75
53 15 28 66 29 81 2z m-5762 -17 c12 -8 22 -24 22 -34 0 -24 -26 -50 -50 -50
-22 0 -50 26 -50 46 0 15 35 54 48 54 4 0 18 -7 30 -16z m2490 -47 c4 -22 -27
-35 -38 -16 -10 15 7 42 24 36 6 -2 12 -11 14 -20z m826 -93 c3 -8 24 -8 78 1
40 7 74 12 76 10 2 -1 -27 -20 -63 -41 -36 -21 -65 -41 -65 -46 0 -4 18 -48
40 -99 22 -51 38 -94 37 -96 -3 -2 -87 97 -123 145 -10 13 -16 11 -48 -13 -20
-15 -39 -26 -41 -23 -2 2 1 21 7 41 6 20 9 39 6 42 -3 3 -36 11 -74 18 l-69
13 87 18 87 19 17 51 17 51 14 -40 c7 -22 15 -45 17 -51z m-1613 -35 c18 -34
-3 -69 -41 -69 -32 0 -53 30 -42 60 13 36 65 41 83 9z m-5899 -76 c22 -20 23
-41 1 -65 -20 -22 -46 -23 -67 -2 -30 29 -9 84 31 84 9 0 25 -7 35 -17z m3315
-29 c7 -18 -17 -38 -31 -24 -11 11 -1 40 14 40 6 0 13 -7 17 -16z m-2279 -70
c27 -18 27 -61 1 -77 -50 -31 -105 38 -59 75 27 22 30 22 58 2z m1972 -63 c0
-11 -4 -22 -8 -25 -14 -9 -35 12 -29 28 9 23 37 20 37 -3z m8490 -21 c24 -44
-17 -88 -64 -70 -21 8 -26 16 -26 44 0 36 9 44 52 45 18 1 31 -6 38 -19z
m-2055 -76 c20 -8 37 -48 29 -69 -11 -29 -43 -38 -70 -20 -31 20 -32 59 -2 79
26 19 22 18 43 10z m-5388 -153 c21 -44 -23 -85 -67 -61 -23 12 -27 59 -8 78
20 20 61 10 75 -17z m-3052 -103 c328 -141 907 -429 892 -444 -4 -4 -230 88
-407 166 -210 92 -740 361 -740 376 0 6 105 -34 255 -98z m6983 39 c2 -12 -3
-17 -17 -17 -15 0 -21 6 -21 21 0 25 33 22 38 -4z m-799 -21 c12 -26 11 -30
-7 -49 -18 -18 -25 -19 -47 -9 -32 15 -41 36 -26 68 16 35 61 30 80 -10z
m-2187 -43 c2 -22 9 -29 31 -31 32 -4 34 -13 6 -30 -17 -11 -20 -20 -15 -43 6
-33 0 -36 -26 -12 -16 14 -24 15 -49 6 -33 -13 -33 -13 -17 22 11 24 9 29 -12
46 l-25 19 37 0 c32 0 39 4 44 25 8 33 22 32 26 -2z m-3187 -188 c128 -56 411
-199 429 -216 17 -15 -3 -10 -62 17 -31 14 -78 34 -103 44 -90 36 -411 200
-434 222 -13 13 13 2 170 -67z m-690 32 c22 -12 46 -22 53 -23 61 -11 902
-420 902 -439 0 -3 -142 52 -205 80 -366 162 -577 264 -569 276 3 5 -1 7 -8 5
-7 -3 -40 10 -74 27 -146 76 -184 98 -184 103 0 8 39 -5 85 -29z m8286 -93
c22 -24 40 -32 77 -37 182 -21 506 -184 661 -331 111 -107 227 -291 270 -430
37 -120 37 -120 -91 -226 -62 -51 -129 -108 -149 -127 -36 -34 -37 -34 -80
-23 -128 35 -327 188 -442 340 -120 159 -233 488 -242 702 -3 72 -5 80 -47
140 -25 35 -49 70 -53 78 -9 17 54 -39 96 -86z m-9363 63 c4 -20 -25 -34 -40
-19 -15 15 -1 44 19 40 10 -2 19 -11 21 -21z m8684 -54 c10 -9 18 -24 18 -34
0 -23 -26 -49 -50 -49 -10 0 -26 7 -34 16 -30 29 -9 84 31 84 9 0 25 -7 35
-17z m1869 -54 c17 -33 -3 -69 -39 -69 -33 0 -52 16 -52 45 0 29 19 45 52 45
18 0 31 -7 39 -21z m-4533 -81 c7 -7 12 -21 12 -33 0 -12 -5 -26 -12 -33 -7
-7 -21 -12 -33 -12 -12 0 -26 5 -33 12 -7 7 -12 21 -12 33 0 12 5 26 12 33 7
7 21 12 33 12 12 0 26 -5 33 -12z m-1397 -15 c13 -16 12 -17 -3 -4 -10 7 -18
15 -18 17 0 8 8 3 21 -13z m5959 13 c0 -2 -8 -10 -17 -17 -16 -13 -17 -12 -4
4 13 16 21 21 21 13z m-9020 -541 c289 -289 523 -525 520 -525 -3 0 -241 236
-530 525 -289 289 -523 525 -520 525 3 0 241 -236 530 -525z m6890 480 c13
-14 21 -25 18 -25 -2 0 -15 11 -28 25 -13 14 -21 25 -18 25 2 0 15 -11 28 -25z
m2090 22 c0 -2 -12 -14 -27 -28 l-28 -24 24 28 c23 25 31 32 31 24z m-5860
-32 c13 -14 21 -25 18 -25 -2 0 -15 11 -28 25 -13 14 -21 25 -18 25 2 0 15
-11 28 -25z m-1590 -48 c0 -2 -10 -12 -22 -23 l-23 -19 19 23 c18 21 26 27 26
19z m3760 0 c0 -2 -10 -12 -22 -23 l-23 -19 19 23 c18 21 26 27 26 19z m1680
-22 c13 -14 21 -25 18 -25 -2 0 -15 11 -28 25 -13 14 -21 25 -18 25 2 0 15
-11 28 -25z m1930 22 c0 -2 -12 -14 -27 -28 l-28 -24 24 28 c23 25 31 32 31
24z m-5700 -32 c13 -14 21 -25 18 -25 -2 0 -15 11 -28 25 -13 14 -21 25 -18
25 2 0 15 -11 28 -25z m-3243 -26 c83 -33 359 -166 456 -219 157 -87 -57 -3
-291 114 -275 137 -324 168 -165 105z m1691 19 c35 -35 -14 -102 -57 -78 -14
7 -21 21 -21 38 0 33 16 52 45 52 12 0 26 -5 33 -12z m480 -20 c20 -20 14 -56
-13 -74 -23 -15 -27 -15 -50 0 -27 18 -31 36 -15 67 12 22 59 26 78 7z m-678
-21 c0 -2 -10 -12 -22 -23 l-23 -19 19 23 c18 21 26 27 26 19z m3760 0 c0 -2
-10 -12 -22 -23 l-23 -19 19 23 c18 21 26 27 26 19z m1840 -22 c13 -14 21 -25
18 -25 -2 0 -15 11 -28 25 -13 14 -21 25 -18 25 2 0 15 -11 28 -25z m1770 22
c0 -2 -12 -14 -27 -28 l-28 -24 24 28 c23 25 31 32 31 24z m-5540 -32 c13 -14
21 -25 18 -25 -2 0 -15 11 -28 25 -13 14 -21 25 -18 25 2 0 15 -11 28 -25z
m-395 -45 c4 -6 1 -18 -6 -26 -11 -13 -14 -13 -27 0 -8 8 -11 19 -8 25 9 14
33 14 41 1z m-1515 -3 c0 -2 -10 -12 -22 -23 l-23 -19 19 23 c18 21 26 27 26
19z m3760 0 c0 -2 -10 -12 -22 -23 l-23 -19 19 23 c18 21 26 27 26 19z m2000
-22 c13 -14 21 -25 18 -25 -2 0 -15 11 -28 25 -13 14 -21 25 -18 25 2 0 15
-11 28 -25z m1610 22 c0 -2 -12 -14 -27 -28 l-28 -24 24 28 c23 25 31 32 31
24z m-5380 -32 c13 -14 21 -25 18 -25 -2 0 -15 11 -28 25 -13 14 -21 25 -18
25 2 0 15 -11 28 -25z m6690 -5 c0 -13 -7 -20 -20 -20 -13 0 -20 7 -20 20 0
13 7 20 20 20 13 0 20 -7 20 -20z m-3727 -11 c13 -21 2 -65 -19 -73 -49 -19
-87 28 -58 72 18 27 61 27 77 1z m-7583 -7 c47 -38 -5 -102 -59 -72 -25 13
-28 52 -5 74 20 21 37 20 64 -2z m3688 -32 c26 -24 28 -47 6 -78 -31 -44 -104
-20 -104 35 0 57 57 81 98 43z m-1138 7 c0 -2 -10 -12 -22 -23 l-23 -19 19 23
c18 21 26 27 26 19z m3760 0 c0 -2 -10 -12 -22 -23 l-23 -19 19 23 c18 21 26
27 26 19z m2160 -22 c13 -14 21 -25 18 -25 -2 0 -15 11 -28 25 -13 14 -21 25
-18 25 2 0 15 -11 28 -25z m-3770 -10 c13 -14 21 -25 18 -25 -2 0 -15 11 -28
25 -13 14 -21 25 -18 25 2 0 15 -11 28 -25z m5588 -45 c28 -17 83 -60 121 -95
38 -36 78 -65 89 -65 45 0 27 -29 -69 -109 -92 -77 -119 -90 -119 -56 0 8 -24
50 -54 93 -52 77 -96 174 -96 212 0 59 46 66 128 20z m-7818 -3 c0 -2 -10 -12
-22 -23 l-23 -19 19 23 c18 21 26 27 26 19z m3760 0 c0 -2 -10 -12 -22 -23
l-23 -19 19 23 c18 21 26 27 26 19z m2320 -22 c13 -14 21 -25 18 -25 -2 0 -15
11 -28 25 -13 14 -21 25 -18 25 2 0 15 -11 28 -25z m-3770 -10 c13 -14 21 -25
18 -25 -2 0 -15 11 -28 25 -13 14 -21 25 -18 25 2 0 15 -11 28 -25z m-4062 -8
c4 -21 -27 -35 -38 -17 -12 19 0 42 19 38 9 -2 17 -11 19 -21z m4486 -33 c9
-8 16 -24 16 -34 0 -10 -7 -26 -16 -34 -8 -9 -24 -16 -34 -16 -10 0 -26 7 -34
16 -9 8 -16 24 -16 34 0 10 7 26 16 34 8 9 24 16 34 16 10 0 26 -7 34 -16z
m-2814 -7 c0 -2 -10 -12 -22 -23 l-23 -19 19 23 c18 21 26 27 26 19z m3760 0
c0 -2 -10 -12 -22 -23 l-23 -19 19 23 c18 21 26 27 26 19z m2480 -22 c13 -14
21 -25 18 -25 -2 0 -15 11 -28 25 -13 14 -21 25 -18 25 2 0 15 -11 28 -25z
m-3770 -10 c13 -14 21 -25 18 -25 -2 0 -15 11 -28 25 -13 14 -21 25 -18 25 2
0 15 -11 28 -25z m-2550 -48 c0 -2 -10 -12 -22 -23 l-23 -19 19 23 c18 21 26
27 26 19z m3760 0 c0 -2 -10 -12 -22 -23 l-23 -19 19 23 c18 21 26 27 26 19z
m2640 -22 c13 -14 21 -25 18 -25 -2 0 -15 11 -28 25 -13 14 -21 25 -18 25 2 0
15 -11 28 -25z m-3770 -10 c13 -14 21 -25 18 -25 -2 0 -15 11 -28 25 -13 14
-21 25 -18 25 2 0 15 -11 28 -25z m-2710 -48 c0 -2 -10 -12 -22 -23 l-23 -19
19 23 c18 21 26 27 26 19z m6560 -22 c13 -14 21 -25 18 -25 -2 0 -15 11 -28
25 -13 14 -21 25 -18 25 2 0 15 -11 28 -25z m-3770 -10 c13 -14 21 -25 18 -25
-2 0 -15 11 -28 25 -13 14 -21 25 -18 25 2 0 15 -11 28 -25z m944 -5 c-17 -34
-44 -40 -44 -10 0 13 7 20 19 20 11 0 23 5 26 10 14 22 13 8 -1 -20z m1882
-82 c-3 -51 -8 -210 -11 -353 -3 -143 -8 -290 -11 -327 l-6 -68 -93 0 -93 0
-6 133 c-10 203 -23 691 -19 700 2 4 58 7 125 7 l120 0 -6 -92z m-5696 39 c0
-2 -10 -12 -22 -23 l-23 -19 19 23 c18 21 26 27 26 19z m3760 0 c0 -2 -10 -12
-22 -23 l-23 -19 19 23 c18 21 26 27 26 19z m2960 -22 c13 -14 21 -25 18 -25
-2 0 -15 11 -28 25 -13 14 -21 25 -18 25 2 0 15 -11 28 -25z m-3770 -10 c13
-14 21 -25 18 -25 -2 0 -15 11 -28 25 -13 14 -21 25 -18 25 2 0 15 -11 28 -25z
m-1230 -19 c156 -54 257 -141 326 -281 52 -106 70 -200 60 -320 -22 -288 -216
-488 -512 -527 -69 -10 -97 -9 -171 5 -287 55 -473 281 -473 572 0 171 51 297
166 413 80 80 174 132 288 158 87 20 228 11 316 -20z m2908 6 c2 -14 -2 -22
-12 -22 -19 0 -29 17 -22 36 8 22 30 12 34 -14z m1970 -39 c-5 -26 -38 -29
-38 -4 0 15 6 21 21 21 14 0 19 -5 17 -17z m-6678 4 c0 -2 -10 -12 -22 -23
l-23 -19 19 23 c18 21 26 27 26 19z m3760 0 c0 -2 -10 -12 -22 -23 l-23 -19
19 23 c18 21 26 27 26 19z m3120 -22 c13 -14 21 -25 18 -25 -2 0 -15 11 -28
25 -13 14 -21 25 -18 25 2 0 15 -11 28 -25z m-3770 -10 c13 -14 21 -25 18 -25
-2 0 -15 11 -28 25 -13 14 -21 25 -18 25 2 0 15 -11 28 -25z m4250 22 c0 -2
-10 -12 -22 -23 l-23 -19 19 23 c18 21 26 27 26 19z m762 -60 c9 -1 14 -5 12
-9 -3 -4 5 -8 17 -8 l22 0 -23 -20 c-13 -11 -28 -20 -34 -20 -5 0 5 -13 24
-30 19 -16 40 -27 47 -25 7 2 10 -2 6 -11 -4 -10 0 -12 13 -7 13 5 15 3 9 -7
-6 -10 -4 -12 9 -7 9 4 14 3 11 -2 -3 -5 -1 -12 5 -16 17 -10 11 -24 -15 -37
l-25 -14 65 -66 c68 -71 78 -93 45 -103 -11 -3 -20 -12 -20 -18 0 -14 70 -154
70 -141 0 5 16 -22 35 -60 32 -64 42 -96 31 -96 -11 0 -156 113 -156 122 0 5
-4 7 -9 4 -5 -4 -11 -3 -13 1 -1 5 -20 21 -41 36 -36 27 -67 30 -67 7 0 -5 -8
-10 -17 -10 -10 0 -40 30 -68 70 -27 38 -55 69 -60 69 -6 1 -16 -9 -24 -21
-13 -21 -14 -21 -28 -2 -8 10 -30 49 -48 86 -24 50 -35 64 -44 55 -6 -6 -11
-17 -11 -24 0 -31 -20 -9 -34 39 l-15 52 42 38 c22 21 47 36 53 34 8 -3 11 1
8 8 -3 7 5 20 18 28 13 9 49 39 81 67 48 42 63 50 85 45 15 -3 35 -6 44 -7z
m-7611 -18 c17 -33 -3 -69 -39 -69 -33 0 -52 16 -52 45 0 29 19 45 52 45 18 0
31 -7 39 -21z m6478 -20 c5 7 19 11 32 9 31 -4 38 -42 12 -57 -23 -12 -29 -8
-78 49 -34 39 -35 41 -7 15 25 -23 35 -27 41 -16z m-9059 11 c14 -26 5 -57
-21 -71 -43 -23 -92 44 -57 79 20 20 66 15 78 -8z m1990 17 c0 -2 -10 -12 -22
-23 l-23 -19 19 23 c18 21 26 27 26 19z m3760 0 c0 -2 -10 -12 -22 -23 l-23
-19 19 23 c18 21 26 27 26 19z m3610 0 c0 -2 -12 -14 -27 -28 l-28 -24 24 28
c23 25 31 32 31 24z m-4100 -32 c13 -14 21 -25 18 -25 -2 0 -15 11 -28 25 -13
14 -21 25 -18 25 2 0 15 -11 28 -25z m-4161 -59 c9 -10 8 -16 -4 -26 -19 -16
-41 1 -32 24 8 20 21 20 36 2z m811 11 c0 -2 -10 -12 -22 -23 l-23 -19 19 23
c18 21 26 27 26 19z m3750 -12 c-11 -13 -7 -15 24 -15 l36 0 0 -67 0 -66 43
43 c23 23 67 54 97 69 46 21 69 26 145 26 145 0 250 -51 334 -163 137 -182
111 -500 -55 -651 -30 -28 -60 -51 -66 -51 -6 0 -7 -8 -3 -17 5 -14 4 -15 -6
-6 -9 9 -17 9 -33 1 -33 -18 -118 -38 -161 -38 -47 0 -128 20 -170 43 -37 20
-105 82 -105 96 0 6 -4 11 -10 11 -6 0 -10 -101 -10 -282 l0 -283 -111 2 c-61
1 -113 3 -115 6 -3 3 -5 701 -4 1250 l0 77 74 0 c53 0 77 4 86 15 7 8 15 15
17 15 3 0 0 -7 -7 -15z m3620 12 c0 -2 -12 -14 -27 -28 l-28 -24 24 28 c23 25
31 32 31 24z m-3940 -32 c13 -14 21 -25 18 -25 -2 0 -15 11 -28 25 -13 14 -21
25 -18 25 2 0 15 -11 28 -25z m-327 -14 c64 -22 103 -47 161 -100 146 -137
177 -387 71 -577 -104 -186 -350 -270 -569 -194 -122 42 -220 136 -267 258
-27 71 -37 212 -19 291 38 171 174 305 345 340 72 15 210 6 278 -18z m2019 18
c139 -30 235 -120 254 -238 l7 -41 -120 0 -119 0 -9 32 c-14 47 -65 78 -130
78 -122 0 -182 -115 -86 -164 16 -9 90 -31 163 -50 73 -18 155 -44 181 -56
116 -55 160 -189 101 -308 -44 -88 -128 -141 -262 -164 -86 -14 -205 -1 -280
32 -91 40 -172 151 -172 235 l0 25 114 0 114 0 12 -35 c24 -74 130 -106 213
-66 60 29 78 69 53 116 -23 41 -35 47 -206 90 -157 39 -184 50 -240 102 -113
102 -58 313 99 381 89 39 217 51 313 31z m2166 -48 c15 13 16 12 3 -3 -11 -15
-11 -21 0 -35 13 -16 12 -17 -3 -4 -15 11 -21 11 -35 0 -16 -13 -17 -12 -4 4
11 14 11 20 0 35 -13 15 -12 16 4 3 14 -11 20 -11 35 0z m302 -22 c31 -17 89
-59 128 -95 38 -35 75 -64 81 -64 5 0 14 -7 19 -16 7 -13 -1 -26 -37 -58 -67
-59 -142 -121 -150 -124 -4 -1 -22 15 -41 35 -19 21 -23 27 -9 15 43 -38 41
-11 -4 54 -80 116 -121 222 -104 269 10 24 54 18 117 -16z m-7670 15 c0 0 -8
-8 -18 -17 -16 -15 -18 -15 -18 1 0 10 8 18 18 18 10 0 18 -1 18 -2z m3590
-29 c13 -14 21 -25 18 -25 -2 0 -15 11 -28 25 -13 14 -21 25 -18 25 2 0 15
-11 28 -25z m4951 8 c13 -16 12 -17 -3 -4 -10 7 -18 15 -18 17 0 8 8 3 21 -13z
m-8356 -193 c104 -104 188 -190 185 -190 -3 0 -91 86 -195 190 -104 105 -188
190 -185 190 3 0 91 -85 195 -190z m-265 137 c0 -2 -10 -12 -22 -23 l-23 -19
19 23 c18 21 26 27 26 19z m7370 0 c0 -2 -12 -14 -27 -28 l-28 -24 24 28 c23
25 31 32 31 24z m150 -22 c13 -14 21 -25 18 -25 -2 0 -15 11 -28 25 -13 14
-21 25 -18 25 2 0 15 -11 28 -25z m1734 -1 c30 -29 9 -84 -31 -84 -23 0 -53
29 -53 51 0 23 26 49 50 49 10 0 26 -7 34 -16z m-553 -11 c13 -16 12 -17 -3
-4 -10 7 -18 15 -18 17 0 8 8 3 21 -13z m-10063 -60 c5 -17 -26 -29 -40 -15
-6 6 -7 15 -3 22 9 14 37 9 43 -7z m1282 14 c0 -2 -10 -12 -22 -23 l-23 -19
19 23 c18 21 26 27 26 19z m3760 0 c0 -2 -10 -12 -22 -23 l-23 -19 19 23 c18
21 26 27 26 19z m3610 0 c0 -2 -12 -14 -27 -28 l-28 -24 24 28 c23 25 31 32
31 24z m310 -22 c13 -14 21 -25 18 -25 -2 0 -15 11 -28 25 -13 14 -21 25 -18
25 2 0 15 -11 28 -25z m76 -77 l29 -33 -32 29 c-31 28 -38 36 -30 36 2 0 16
-15 33 -32z m-7836 19 c0 -2 -10 -12 -22 -23 l-23 -19 19 23 c18 21 26 27 26
19z m3760 0 c0 -2 -10 -12 -22 -23 l-23 -19 19 23 c18 21 26 27 26 19z m3610
0 c0 -2 -12 -14 -27 -28 l-28 -24 24 28 c23 25 31 32 31 24z m1511 -24 c13
-17 13 -17 -6 -3 -11 8 -22 16 -24 17 -2 2 0 3 6 3 6 0 17 -8 24 -17z m-8961
-56 c0 -2 -10 -12 -22 -23 l-23 -19 19 23 c18 21 26 27 26 19z m7370 0 c0 -2
-12 -14 -27 -28 l-28 -24 24 28 c23 25 31 32 31 24z m1599 -52 c0 -5 -6 1 -14
15 -8 14 -14 30 -14 35 0 6 6 -1 14 -15 8 -14 14 -29 14 -35z m-8581 33 c7 -7
12 -21 12 -33 0 -12 -5 -26 -12 -33 -7 -7 -21 -12 -33 -12 -12 0 -26 5 -33 12
-7 7 -12 21 -12 33 0 12 5 26 12 33 7 7 21 12 33 12 12 0 26 -5 33 -12z m708
-32 c19 -19 34 -42 34 -51 0 -14 6 -16 39 -10 50 8 95 -14 117 -57 31 -61 -20
-148 -87 -148 -22 0 -30 -6 -35 -24 -10 -42 -67 -88 -116 -93 -35 -4 -50 0
-81 21 -46 31 -45 31 -74 4 -46 -43 -136 -15 -150 46 -5 25 -9 28 -39 23 -21
-4 -46 1 -73 15 -102 50 -58 198 60 198 18 0 30 3 26 6 -9 10 21 62 42 74 33
17 78 11 109 -15 24 -20 31 -22 36 -10 10 27 69 55 115 55 36 0 49 -6 77 -34z
m7529 24 c3 -5 1 -10 -4 -10 -6 0 -11 5 -11 10 0 6 2 10 4 10 3 0 8 -4 11 -10z
m-8705 -53 c0 -2 -10 -12 -22 -23 l-23 -19 19 23 c18 21 26 27 26 19z m7370 0
c0 -2 -12 -14 -27 -28 l-28 -24 24 28 c23 25 31 32 31 24z m790 -22 c13 -14
21 -25 18 -25 -2 0 -15 11 -28 25 -13 14 -21 25 -18 25 2 0 15 -11 28 -25z
m520 15 c0 -5 -2 -10 -4 -10 -3 0 -8 5 -11 10 -3 6 -1 10 4 10 6 0 11 -4 11
-10z m-8760 -73 c0 -2 -10 -12 -22 -23 l-23 -19 19 23 c18 21 26 27 26 19z
m7370 0 c0 -2 -12 -14 -27 -28 l-28 -24 24 28 c23 25 31 32 31 24z m950 -22
c13 -14 21 -25 18 -25 -2 0 -15 11 -28 25 -13 14 -21 25 -18 25 2 0 15 -11 28
-25z m604 9 c5 -14 4 -15 -9 -4 -17 14 -19 20 -6 20 5 0 12 -7 15 -16z m275
-14 c11 -24 11 -24 -3 -6 -9 11 -16 24 -16 30 0 12 5 7 19 -24z m-149 -6 c0
-2 -9 0 -20 6 -11 6 -20 13 -20 16 0 2 9 0 20 -6 11 -6 20 -13 20 -16z m116
-31 c-10 -10 -19 5 -10 18 6 11 8 11 12 0 2 -7 1 -15 -2 -18z m-9246 -16 c0
-2 -10 -12 -22 -23 l-23 -19 19 23 c18 21 26 27 26 19z m7370 0 c0 -2 -12 -14
-27 -28 l-28 -24 24 28 c23 25 31 32 31 24z m1110 -22 c13 -14 21 -25 18 -25
-2 0 -15 11 -28 25 -13 14 -21 25 -18 25 2 0 15 -11 28 -25z m-1963 -22 c90
-43 99 -184 13 -228 -39 -20 -105 -19 -141 2 -81 48 -75 178 10 223 45 24 73
25 118 3z m2788 -33 c3 -6 -1 -7 -9 -4 -18 7 -21 14 -7 14 6 0 13 -4 16 -10z
m-9385 -3 c0 -2 -10 -12 -22 -23 l-23 -19 19 23 c18 21 26 27 26 19z m7370 0
c0 -2 -12 -14 -27 -28 l-28 -24 24 28 c23 25 31 32 31 24z m1270 -22 c13 -14
21 -25 18 -25 -2 0 -15 11 -28 25 -13 14 -21 25 -18 25 2 0 15 -11 28 -25z
m-850 -39 c15 -19 9 -56 -11 -69 -9 -5 -28 -7 -42 -3 -52 13 -42 86 12 86 16
0 34 -7 41 -14z m-7870 -19 c0 -2 -10 -12 -22 -23 l-23 -19 19 23 c18 21 26
27 26 19z m7370 0 c0 -2 -12 -14 -27 -28 l-28 -24 24 28 c23 25 31 32 31 24z
m1430 -22 c13 -14 21 -25 18 -25 -2 0 -15 11 -28 25 -13 14 -21 25 -18 25 2 0
15 -11 28 -25z m-7060 -312 c0 -8 -15 7 -140 135 l-135 137 138 -135 c75 -74
137 -136 137 -137z m-1820 254 c0 -2 -10 -12 -22 -23 l-23 -19 19 23 c18 21
26 27 26 19z m7370 0 c0 -2 -12 -14 -27 -28 l-28 -24 24 28 c23 25 31 32 31
24z m1590 -22 c13 -14 21 -25 18 -25 -2 0 -15 11 -28 25 -13 14 -21 25 -18 25
2 0 15 -11 28 -25z m-9040 -58 c0 -2 -10 -12 -22 -23 l-23 -19 19 23 c18 21
26 27 26 19z m3760 0 c0 -2 -10 -12 -22 -23 l-23 -19 19 23 c18 21 26 27 26
19z m3610 0 c0 -2 -12 -14 -27 -28 l-28 -24 24 28 c23 25 31 32 31 24z m1750
-22 c13 -14 21 -25 18 -25 -2 0 -15 11 -28 25 -13 14 -21 25 -18 25 2 0 15
-11 28 -25z m-3770 -10 c13 -14 21 -25 18 -25 -2 0 -15 11 -28 25 -13 14 -21
25 -18 25 2 0 15 -11 28 -25z m4258 -48 c2 -12 -3 -17 -17 -17 -12 0 -21 6
-21 13 0 31 32 34 38 4z m-9688 0 c0 -2 -10 -12 -22 -23 l-23 -19 19 23 c18
21 26 27 26 19z m3760 0 c0 -2 -10 -12 -22 -23 l-23 -19 19 23 c18 21 26 27
26 19z m3610 0 c0 -2 -12 -14 -27 -28 l-28 -24 24 28 c23 25 31 32 31 24z
m1910 -22 c13 -14 21 -25 18 -25 -2 0 -15 11 -28 25 -13 14 -21 25 -18 25 2 0
15 -11 28 -25z m-3770 -10 c13 -14 21 -25 18 -25 -2 0 -15 11 -28 25 -13 14
-21 25 -18 25 2 0 15 -11 28 -25z m2296 -9 c19 -19 34 -43 34 -55 0 -18 6 -21
40 -21 92 0 147 -89 105 -171 -16 -31 -68 -69 -95 -69 -8 -1 -24 -19 -35 -42
-37 -75 -145 -85 -190 -18 l-19 29 -32 -20 c-17 -10 -47 -19 -65 -19 -41 0
-95 31 -104 59 -4 13 -20 24 -44 31 -73 19 -115 98 -87 163 18 45 74 87 114
87 17 0 48 11 68 25 44 30 69 31 111 6 l31 -20 17 25 c35 54 103 58 151 10z
m-7886 -39 c0 -2 -10 -12 -22 -23 l-23 -19 19 23 c18 21 26 27 26 19z m3760 0
c0 -2 -10 -12 -22 -23 l-23 -19 19 23 c18 21 26 27 26 19z m-80 -80 c0 -2 -10
-12 -22 -23 l-23 -19 19 23 c18 21 26 27 26 19z m-3040 -117 c0 -13 -7 -20
-20 -20 -19 0 -27 20 -13 33 13 14 33 6 33 -13z m-950 -4 c0 -2 -8 -10 -17
-17 -16 -13 -17 -12 -4 4 13 16 21 21 21 13z m1553 -27 c13 -21 1 -65 -19 -73
-43 -17 -81 28 -61 72 8 18 17 22 40 20 17 -2 34 -10 40 -19z m-1735 -69 c-7
-10 -14 -17 -17 -15 -4 4 18 35 25 35 2 0 -1 -9 -8 -20z m-720 -12 c7 -7 12
-24 12 -40 0 -50 -66 -62 -91 -17 -23 43 44 92 79 57z m998 -4 c20 8 120 -92
128 -129 11 -47 6 -166 -9 -202 -8 -18 -21 -33 -30 -33 -10 0 -32 -7 -51 -16
-32 -15 -34 -19 -34 -65 0 -58 -33 -99 -80 -99 -17 0 -30 2 -30 4 0 2 13 19
30 37 16 19 30 44 30 55 0 27 -21 46 -39 34 -18 -10 -33 -5 -98 37 -29 18 -53
40 -53 48 0 8 -4 15 -10 15 -5 0 -10 9 -10 19 0 10 -7 21 -15 25 -17 6 -20 37
-4 53 7 7 -3 24 -34 56 -41 43 -46 46 -76 37 -38 -11 -42 5 -6 22 16 7 24 17
20 26 -8 22 45 5 76 -24 l26 -25 7 25 c3 14 10 25 14 24 15 -4 53 24 62 46 6
18 14 22 37 19 15 -2 37 2 47 10 15 11 28 12 54 5 18 -5 40 -7 48 -4z m-369
-40 c-3 -3 -12 -4 -19 -1 -8 3 -5 6 6 6 11 1 17 -2 13 -5z m8840 -10 c7 -20
-17 -37 -34 -23 -15 13 -6 39 13 39 8 0 17 -7 21 -16z m1831 -46 c28 -28 7
-78 -33 -78 -27 0 -45 18 -45 45 0 27 18 45 45 45 12 0 26 -5 33 -12z m-10039
-7 c7 -5 9 -11 4 -14 -4 -3 -17 1 -28 9 -21 16 0 20 24 5z m2881 -37 c0 -3
-11 -14 -23 -25 -39 -30 -97 -122 -123 -193 -32 -89 -32 -184 0 -287 25 -82
48 -119 110 -186 l40 -43 -48 0 c-44 0 -52 4 -88 43 -85 90 -130 232 -118 369
12 121 55 220 130 296 27 26 40 32 76 32 24 0 44 -3 44 -6z m3649 -36 c81 -83
138 -243 127 -359 -10 -115 -63 -240 -127 -301 -34 -33 -45 -38 -85 -38 l-47
0 46 48 c74 80 114 175 123 297 10 126 -49 280 -139 361 l-37 34 49 0 c44 0
53 -4 90 -42z m-4411 -144 c12 -8 22 -26 22 -38 0 -54 -77 -64 -95 -12 -8 24
-6 31 14 47 28 23 31 23 59 3z m3372 -129 l0 -145 25 0 c22 0 25 -4 25 -35 0
-31 -3 -35 -25 -35 -23 0 -25 -4 -25 -45 l0 -45 -45 0 -45 0 0 45 0 45 -110 0
-110 0 0 31 c0 23 27 69 103 180 l102 148 53 1 52 0 0 -145z m370 122 c61 -41
75 -78 75 -202 0 -93 -3 -115 -21 -145 -31 -53 -77 -80 -138 -80 -118 0 -171
71 -171 225 1 157 51 225 166 225 42 0 65 -6 89 -23z m456 -42 c1 -33 2 -97 3
-142 1 -81 1 -83 26 -83 22 0 25 -4 25 -35 0 -31 -3 -35 -25 -35 -23 0 -25 -4
-25 -45 l0 -45 -44 0 -45 0 -3 43 -3 42 -80 1 c-139 1 -135 -1 -135 38 0 18 9
45 20 59 11 14 20 29 20 33 0 4 17 30 39 58 21 28 47 65 57 81 55 89 63 96
118 93 l51 -3 1 -60z m-3137 41 c6 -4 11 -18 11 -32 0 -24 -1 -24 -86 -24
l-86 0 4 -57 3 -58 73 -3 73 -3 -3 -31 -3 -31 -70 -1 -70 -1 -3 -62 -3 -63 86
0 85 0 0 -30 0 -31 -127 3 -128 3 -2 195 c-2 107 0 205 2 217 5 22 8 22 119
19 63 -2 119 -7 125 -10z m1194 3 c86 -24 147 -110 147 -209 0 -139 -83 -224
-220 -225 -81 0 -140 30 -184 93 -26 37 -31 55 -34 116 -5 87 15 136 75 185
59 49 135 63 216 40z m-4450 -14 c-3 -9 -8 -14 -10 -11 -3 3 -2 9 2 15 9 16
15 13 8 -4z m3614 -5 c82 -50 84 -161 3 -211 -22 -13 -39 -26 -40 -29 0 -3 23
-41 50 -85 l50 -80 -41 -3 c-23 -2 -47 -1 -53 1 -7 3 -33 41 -60 86 -45 77
-75 102 -77 64 0 -10 -1 -47 -2 -83 l-2 -65 -42 -3 -43 -3 0 215 0 216 113 0
c93 0 117 -3 144 -20z m410 0 c36 -22 63 -66 63 -105 0 -42 -30 -94 -64 -112
-17 -8 -33 -17 -35 -19 -2 -2 14 -31 36 -66 72 -114 71 -108 14 -108 l-50 0
-51 85 c-28 47 -58 85 -66 85 -11 0 -14 -18 -14 -85 l0 -85 -45 0 -45 0 0 215
0 215 113 0 c93 0 117 -3 144 -20z m909 1 c42 -25 68 -82 59 -129 -6 -35 -55
-94 -85 -104 -12 -4 -3 -23 37 -89 l52 -84 -41 -3 c-22 -2 -46 -1 -53 2 -7 2
-34 41 -61 85 -26 45 -54 81 -61 81 -8 0 -13 -24 -15 -82 l-3 -83 -42 -3 -43
-3 0 215 0 216 113 0 c92 0 117 -3 143 -19z m-5449 -43 c-3 -8 -6 -5 -6 6 -1
11 2 17 5 13 3 -3 4 -12 1 -19z m448 -78 c3 -5 1 -10 -4 -10 -6 0 -11 5 -11
10 0 6 2 10 4 10 3 0 8 -4 11 -10z m-25 -10 c0 -5 -5 -10 -11 -10 -5 0 -7 5
-4 10 3 6 8 10 11 10 2 0 4 -4 4 -10z m1495 -30 c24 -26 13 -68 -20 -76 -32
-8 -55 11 -55 45 0 50 42 67 75 31z m6419 -13 c8 -23 6 -31 -11 -49 -43 -43
-102 7 -73 62 17 32 71 24 84 -13z m-7987 -23 c-3 -3 -12 -4 -19 -1 -8 3 -5 6
6 6 11 1 17 -2 13 -5z m-257 -19 c-7 -8 -20 -15 -29 -15 -13 1 -13 3 3 15 26
19 42 19 26 0z m9284 -1 c34 -34 9 -94 -39 -94 -24 0 -55 33 -55 57 0 20 38
53 59 53 11 0 27 -7 35 -16z m-1743 -44 c44 -24 5 -99 -45 -86 -30 7 -43 44
-26 75 12 23 40 27 71 11z m-6560 -272 c15 -27 2 -57 -28 -64 -34 -9 -57 6
-61 39 -6 49 65 70 89 25z m973 -154 c26 -10 40 -43 25 -60 -9 -11 -9 -23 0
-54 l12 -40 52 0 c159 0 308 -89 376 -225 26 -52 28 -54 46 -37 19 16 19 16 2
-4 -13 -16 -15 -27 -8 -55 5 -18 13 -58 16 -87 l7 -54 32 46 c145 209 160 229
187 239 26 10 27 14 22 56 -3 33 0 52 11 66 16 20 16 20 34 -4 13 -16 22 -20
26 -12 10 16 54 13 87 -6 54 -32 46 -108 -16 -144 -27 -16 -34 -26 -30 -42 6
-22 -3 -38 -129 -242 l-59 -95 39 -44 c22 -24 71 -83 111 -132 40 -49 108
-133 153 -187 44 -54 80 -107 80 -117 0 -17 5 -19 44 -14 69 10 100 -18 80
-70 -8 -21 -108 -81 -163 -97 -39 -11 -45 -11 -56 4 -7 9 -25 17 -42 17 -18 0
-52 16 -93 45 -44 31 -74 45 -96 45 -108 0 -146 -103 -75 -202 17 -24 34 -58
37 -75 5 -23 12 -33 25 -33 27 0 42 -34 31 -74 -13 -45 -75 -141 -105 -161
-13 -8 -31 -13 -39 -10 -24 9 -39 53 -32 91 6 30 4 34 -16 34 -12 0 -31 5 -43
11 -26 14 -160 136 -318 290 l-117 114 -48 -88 c-30 -55 -58 -92 -71 -98 -17
-6 -23 -17 -23 -38 0 -47 -16 -77 -47 -89 -54 -20 -88 -7 -109 44 -9 23 -21
34 -34 34 -12 0 -20 7 -20 17 0 19 28 53 44 53 6 0 22 7 34 16 18 12 20 19 12
34 -8 15 4 48 57 162 37 79 75 158 86 175 15 26 16 34 5 37 -156 50 -215 84
-281 164 -66 79 -91 145 -95 252 -3 75 0 107 15 152 l20 58 -32 24 c-17 13
-44 26 -60 28 -35 4 -54 31 -39 56 17 26 55 21 73 -10 15 -26 69 -74 75 -67 1
2 13 20 26 39 58 85 196 179 286 196 33 6 35 8 29 38 -4 17 -18 39 -31 49 -28
21 -31 49 -8 71 18 18 17 18 38 10z m-2321 -86 c15 -21 17 -30 8 -47 -15 -28
-66 -29 -81 -2 -14 27 -13 34 11 60 24 26 36 24 62 -11z m4997 -148 c0 -11 -6
-20 -14 -20 -18 0 -29 16 -21 30 11 18 35 11 35 -10z m-2958 -975 l173 170
-170 -172 -170 -173 130 -130 c71 -71 128 -130 125 -130 -3 0 -325 321 -715
712 -570 573 -595 599 -128 133 l583 -580 172 170z m7336 952 c2 -12 -3 -17
-17 -17 -15 0 -21 6 -21 21 0 25 33 22 38 -4z m-4873 -17 c10 -11 16 -20 13
-20 -3 0 -13 9 -23 20 -10 11 -16 20 -13 20 3 0 13 -9 23 -20z m5775 7 c0 -2
-12 -14 -27 -28 l-28 -24 24 28 c23 25 31 32 31 24z m-3350 -43 c0 -19 -28
-30 -42 -16 -8 8 -8 15 1 26 14 17 41 10 41 -10z m1030 6 c0 -13 -7 -20 -20
-20 -13 0 -20 7 -20 20 0 13 7 20 20 20 13 0 20 -7 20 -20z m-3375 -50 c10
-11 16 -20 13 -20 -3 0 -13 9 -23 20 -10 11 -16 20 -13 20 3 0 13 -9 23 -20z
m3595 -5 c13 -14 21 -25 18 -25 -2 0 -15 11 -28 25 -13 14 -21 25 -18 25 2 0
15 -11 28 -25z m2020 12 c0 -2 -12 -14 -27 -28 l-28 -24 24 28 c23 25 31 32
31 24z m-4437 -31 c7 -18 -1 -26 -25 -26 -18 0 -25 20 -11 33 11 12 31 8 36
-7z m-1098 -56 c10 -11 16 -20 13 -20 -3 0 -13 9 -23 20 -10 11 -16 20 -13 20
3 0 13 -9 23 -20z m3595 -5 c13 -14 21 -25 18 -25 -2 0 -15 11 -28 25 -13 14
-21 25 -18 25 2 0 15 -11 28 -25z m-3660 -5 c0 -13 -7 -20 -20 -20 -13 0 -20
7 -20 20 0 13 7 20 20 20 13 0 20 -7 20 -20z m5520 17 c0 -2 -12 -14 -27 -28
l-28 -24 24 28 c23 25 31 32 31 24z m-1370 -37 c24 -24 25 -38 3 -62 -20 -22
-41 -23 -65 -1 -22 20 -23 32 -2 61 19 27 38 28 64 2z m-8677 -4 c9 -22 -18
-40 -33 -22 -6 9 -9 20 -5 26 9 15 32 12 38 -4z m4672 -46 c10 -11 16 -20 13
-20 -3 0 -13 9 -23 20 -10 11 -16 20 -13 20 3 0 13 -9 23 -20z m3595 -5 c13
-14 21 -25 18 -25 -2 0 -15 11 -28 25 -13 14 -21 25 -18 25 2 0 15 -11 28 -25z
m1700 12 c0 -2 -12 -14 -27 -28 l-28 -24 24 28 c23 25 31 32 31 24z m-6155
-47 c35 -39 -3 -91 -55 -75 -28 9 -37 51 -15 75 10 11 26 20 35 20 9 0 25 -9
35 -20z m940 -40 c10 -11 16 -20 13 -20 -3 0 -13 9 -23 20 -10 11 -16 20 -13
20 3 0 13 -9 23 -20z m3595 -5 c13 -14 21 -25 18 -25 -2 0 -15 11 -28 25 -13
14 -21 25 -18 25 2 0 15 -11 28 -25z m1540 12 c0 -2 -12 -14 -27 -28 l-28 -24
24 28 c23 25 31 32 31 24z m-5055 -87 c10 -11 16 -20 13 -20 -3 0 -13 9 -23
20 -10 11 -16 20 -13 20 3 0 13 -9 23 -20z m365 0 c14 -26 5 -57 -21 -70 -40
-22 -82 28 -59 70 15 27 65 27 80 0z m3230 -5 c13 -14 21 -25 18 -25 -2 0 -15
11 -28 25 -13 14 -21 25 -18 25 2 0 15 -11 28 -25z m1380 12 c0 -2 -12 -14
-27 -28 l-28 -24 24 28 c23 25 31 32 31 24z m1353 -17 c21 -25 21 -37 1 -57
-12 -12 -22 -14 -42 -7 -33 12 -40 39 -16 65 22 24 35 24 57 -1z m-5265 -32
c34 -34 -14 -102 -56 -79 -48 26 -31 90 24 91 11 0 25 -5 32 -12z m-983 -38
c10 -11 16 -20 13 -20 -3 0 -13 9 -23 20 -10 11 -16 20 -13 20 3 0 13 -9 23
-20z m3595 -5 c13 -14 21 -25 18 -25 -2 0 -15 11 -28 25 -13 14 -21 25 -18 25
2 0 15 -11 28 -25z m1220 12 c0 -2 -12 -14 -27 -28 l-28 -24 24 28 c23 25 31
32 31 24z m900 -27 c0 -13 -7 -20 -20 -20 -13 0 -20 7 -20 20 0 13 7 20 20 20
13 0 20 -7 20 -20z m-3380 -50 c25 -25 25 -32 1 -61 -16 -20 -23 -22 -47 -14
-34 12 -44 54 -19 79 22 21 41 20 65 -4z m-2255 -10 c10 -11 16 -20 13 -20 -3
0 -13 9 -23 20 -10 11 -16 20 -13 20 3 0 13 -9 23 -20z m3595 -5 c13 -14 21
-25 18 -25 -2 0 -15 11 -28 25 -13 14 -21 25 -18 25 2 0 15 -11 28 -25z m1060
12 c0 -2 -12 -14 -27 -28 l-28 -24 24 28 c23 25 31 32 31 24z m-5546 -33 c19
-18 21 -55 4 -72 -7 -7 -24 -12 -38 -12 -14 0 -31 5 -38 12 -28 28 -2 88 38
88 10 0 26 -7 34 -16z m-2950 -23 c9 -15 -23 -36 -36 -23 -5 5 -7 15 -4 21 9
13 33 14 40 2z m3921 -31 c10 -11 16 -20 13 -20 -3 0 -13 9 -23 20 -10 11 -16
20 -13 20 3 0 13 -9 23 -20z m3595 -5 c13 -14 21 -25 18 -25 -2 0 -15 11 -28
25 -13 14 -21 25 -18 25 2 0 15 -11 28 -25z m900 12 c0 -2 -12 -14 -27 -28
l-28 -24 24 28 c23 25 31 32 31 24z m-280 -106 c0 -19 14 -12 42 21 l27 33 1
-34 c0 -37 -2 -37 88 -2 l54 22 -41 -49 c-47 -56 -51 -79 -16 -88 32 -8 32
-20 1 -28 -16 -4 -24 -13 -23 -25 0 -11 4 -18 8 -16 3 3 20 -13 37 -34 l30
-38 -51 14 c-78 20 -87 18 -87 -19 l-1 -33 -19 23 -19 24 -31 -48 c-16 -26
-30 -53 -31 -58 -2 -22 -17 40 -18 74 l-1 34 -57 -54 -58 -55 59 62 c60 62 67
91 20 73 -35 -14 -36 -13 -24 9 15 29 15 29 -47 42 l-58 12 49 23 c27 12 58
25 69 28 19 5 19 5 -3 41 l-22 36 27 -7 28 -7 -5 59 -4 59 38 -41 c21 -23 38
-46 38 -53z m-4135 19 c10 -11 16 -20 13 -20 -3 0 -13 9 -23 20 -10 11 -16 20
-13 20 3 0 13 -9 23 -20z m3595 -5 c13 -14 21 -25 18 -25 -2 0 -15 11 -28 25
-13 14 -21 25 -18 25 2 0 15 -11 28 -25z m-3515 -75 c10 -11 16 -20 13 -20 -3
0 -13 9 -23 20 -10 11 -16 20 -13 20 3 0 13 -9 23 -20z m3595 -5 c13 -14 21
-25 18 -25 -2 0 -15 11 -28 25 -13 14 -21 25 -18 25 2 0 15 -11 28 -25z
m-3190 -47 c0 -4 -5 -8 -12 -8 -6 0 -8 -3 -5 -7 10 -9 -14 -34 -26 -26 -6 4
-7 1 -2 -6 4 -7 18 -11 31 -8 14 2 27 0 31 -6 3 -6 1 -7 -5 -3 -7 4 -12 5 -12
2 0 -3 17 -14 39 -25 38 -20 83 -58 209 -178 65 -62 78 -92 25 -58 -27 18 -28
18 -13 0 8 -11 26 -30 40 -44 30 -30 111 -131 156 -193 57 -79 56 -85 -4 -35
-106 86 -131 106 -201 159 -74 56 -102 68 -66 28 10 -11 16 -22 13 -25 -2 -3
-37 6 -78 20 -40 13 -76 22 -81 19 -5 -3 -23 5 -41 17 -17 13 -28 16 -23 8 7
-11 6 -12 -6 -3 -8 6 -27 14 -44 18 -54 13 -129 53 -159 85 -28 29 -29 33 -23
96 4 38 3 63 -3 60 -5 -3 -11 -1 -15 5 -4 6 -10 8 -15 5 -4 -3 -6 4 -3 15 7
25 11 25 31 0 17 -20 17 -20 55 6 23 15 61 29 92 33 56 8 89 26 82 45 -3 7 4
12 14 12 11 0 19 -4 19 -8z m-325 -28 c10 -11 16 -20 13 -20 -3 0 -13 9 -23
20 -10 11 -16 20 -13 20 3 0 13 -9 23 -20z m3595 -5 c13 -14 21 -25 18 -25 -2
0 -15 11 -28 25 -13 14 -21 25 -18 25 2 0 15 -11 28 -25z m1701 -25 c22 -12
26 -59 7 -78 -20 -20 -56 -14 -74 13 -15 23 -15 27 0 50 18 27 36 31 67 15z
m-2865 -25 c15 -23 15 -27 0 -50 -29 -44 -86 -28 -86 25 0 53 57 69 86 25z
m1244 -30 c13 -14 21 -25 18 -25 -2 0 -15 11 -28 25 -13 14 -21 25 -18 25 2 0
15 -11 28 -25z m-8608 -137 c29 -37 29 -38 11 -62 -12 -18 -26 -25 -46 -24
-31 3 -33 7 -42 103 l-7 70 27 -25 c15 -14 40 -42 57 -62z m8688 57 c13 -14
21 -25 18 -25 -2 0 -15 11 -28 25 -13 14 -21 25 -18 25 2 0 15 -11 28 -25z
m-8491 -117 c-24 -40 -44 -75 -45 -76 -2 -2 -19 1 -38 8 -32 10 -36 16 -36 44
0 31 4 35 77 69 42 20 79 35 81 32 2 -2 -15 -36 -39 -77z m4779 70 c-2 -7 3
-13 10 -14 6 -1 15 -2 18 -3 4 0 1 -7 -5 -15 -9 -11 -8 -15 6 -21 10 -5 22 -7
26 -6 5 1 6 -3 2 -9 -4 -7 -17 -3 -35 10 -27 19 -29 20 -39 3 -9 -16 -10 -16
-11 -2 0 9 7 20 16 23 12 5 14 10 5 20 -6 7 -8 16 -4 19 10 10 13 8 11 -5z
m1096 -24 c30 -29 9 -84 -31 -84 -19 0 -53 28 -53 44 0 21 31 56 50 56 10 0
26 -7 34 -16z m2636 3 c0 -2 -12 -14 -27 -28 l-28 -24 24 28 c23 25 31 32 31
24z m70 -22 c13 -14 21 -25 18 -25 -2 0 -15 11 -28 25 -13 14 -21 25 -18 25 2
0 15 -11 28 -25z m-7370 11 c0 -2 -8 -10 -17 -17 -16 -13 -17 -12 -4 4 13 16
21 21 21 13z m-50 -49 c0 -1 -242 -243 -537 -537 l-538 -535 535 538 c497 499
540 541 540 534z m3560 -11 c0 -2 -8 -10 -17 -17 -16 -13 -17 -12 -4 4 13 16
21 21 21 13z m3930 -21 c13 -14 21 -25 18 -25 -2 0 -15 11 -28 25 -13 14 -21
25 -18 25 2 0 15 -11 28 -25z m-220 12 c0 -2 -12 -14 -27 -28 l-28 -24 24 28
c23 25 31 32 31 24z m854 -25 c9 -14 -12 -35 -28 -29 -23 9 -20 37 3 37 11 0
22 -4 25 -8z m1430 -34 c8 -22 6 -32 -9 -48 -22 -24 -42 -25 -67 -3 -21 18
-23 36 -7 64 16 31 71 22 83 -13z m-10975 3 c8 -14 4 -25 -18 -50 l-29 -32
-68 14 -69 14 75 36 c87 42 96 44 109 18z m8249 -3 c35 -35 -14 -102 -57 -79
-45 25 -33 91 17 91 16 0 33 -5 40 -12z m-2853 -13 c6 0 10 -5 10 -10 0 -18
71 -85 81 -77 5 4 6 3 2 -2 -3 -4 18 -33 48 -62 56 -56 77 -90 25 -40 -16 15
-32 27 -36 26 -4 -1 -16 13 -26 30 -11 17 -24 28 -29 25 -6 -4 -9 -1 -8 7 2 7
-2 12 -9 11 -6 -2 -21 13 -33 32 -13 21 -26 32 -33 28 -7 -3 -9 -3 -5 2 11 11
-12 36 -25 28 -6 -3 -7 -1 -3 6 4 6 13 8 19 4 7 -4 17 -8 22 -8z m3595 -20
c13 -14 21 -25 18 -25 -2 0 -15 11 -28 25 -13 14 -21 25 -18 25 2 0 15 -11 28
-25z m-8711 -51 c35 -36 61 -67 59 -69 -2 -2 -47 6 -101 18 l-97 20 0 37 c0
33 4 38 33 48 17 5 35 10 38 11 4 1 34 -29 68 -65z m8331 63 c0 -2 -12 -14
-27 -28 l-28 -24 24 28 c23 25 31 32 31 24z m-3246 -25 c3 -5 -1 -9 -9 -9 -8
0 -12 4 -9 9 3 4 7 8 9 8 2 0 6 -4 9 -8z m-5275 -64 c17 -18 31 -38 31 -43 0
-9 -30 -74 -93 -203 -12 -24 -24 -45 -27 -47 -3 -2 -2 40 2 93 4 54 8 120 9
147 2 45 20 83 41 84 4 1 21 -14 37 -31z m8981 -3 c13 -14 21 -25 18 -25 -2 0
-15 11 -28 25 -13 14 -21 25 -18 25 2 0 15 -11 28 -25z m-540 12 c0 -2 -12
-14 -27 -28 l-28 -24 24 28 c23 25 31 32 31 24z m-3091 -20 c8 -10 7 -14 -2
-14 -8 0 -14 6 -14 14 0 7 1 13 2 13 2 0 8 -6 14 -13z m-3334 -357 c192 -192
348 -350 345 -350 -3 0 -163 158 -355 350 -192 193 -348 350 -345 350 3 0 163
-157 355 -350z m4838 314 c-6 -16 -29 -19 -38 -4 -4 6 -1 17 5 26 15 18 42 0
33 -22z m-3183 -23 c0 -11 -4 -22 -8 -25 -14 -9 -35 12 -29 28 9 23 37 20 37
-3z m5390 -6 c13 -14 21 -25 18 -25 -2 0 -15 11 -28 25 -13 14 -21 25 -18 25
2 0 15 -11 28 -25z m-700 12 c0 -2 -12 -14 -27 -28 l-28 -24 24 28 c23 25 31
32 31 24z m-2810 -32 c10 -14 10 -17 1 -8 -7 6 -21 9 -29 5 -14 -5 -15 -4 -2
10 8 9 15 15 15 14 1 0 7 -10 15 -21z m-5 -55 c10 -11 16 -20 13 -20 -3 0 -13
9 -23 20 -10 11 -16 20 -13 20 3 0 13 -9 23 -20z m3595 -5 c13 -14 21 -25 18
-25 -2 0 -15 11 -28 25 -13 14 -21 25 -18 25 2 0 15 -11 28 -25z m-860 12 c0
-2 -12 -14 -27 -28 l-28 -24 24 28 c23 25 31 32 31 24z m-9173 -33 c8 -20 -8
-36 -26 -25 -15 10 -8 41 9 41 6 0 13 -7 17 -16z m2931 -17 c2 -11 -3 -17 -16
-17 -24 0 -32 8 -25 26 7 20 37 13 41 -9z m7342 -17 c24 -44 -17 -88 -61 -67
-27 14 -37 51 -19 73 19 21 67 18 80 -6z m-3755 -20 c10 -11 16 -20 13 -20 -3
0 -13 9 -23 20 -10 11 -16 20 -13 20 3 0 13 -9 23 -20z m3595 -5 c13 -14 21
-25 18 -25 -2 0 -15 11 -28 25 -13 14 -21 25 -18 25 2 0 15 -11 28 -25z
m-2850 -5 c0 -13 -7 -20 -20 -20 -19 0 -27 20 -13 33 13 14 33 6 33 -13z
m1830 17 c0 -2 -12 -14 -27 -28 l-28 -24 24 28 c23 25 31 32 31 24z m1095 -87
c21 -22 37 -40 34 -40 -3 0 -23 18 -44 40 -21 22 -37 40 -34 40 3 0 23 -18 44
-40z m-3590 0 c10 -11 16 -20 13 -20 -3 0 -13 9 -23 20 -10 11 -16 20 -13 20
3 0 13 -9 23 -20z m2415 7 c0 -2 -12 -14 -27 -28 l-28 -24 24 28 c23 25 31 32
31 24z m2378 -34 c5 -17 -26 -29 -40 -15 -6 6 -7 15 -3 22 9 14 37 9 43 -7z
m-4713 -53 c10 -11 16 -20 13 -20 -3 0 -13 9 -23 20 -10 11 -16 20 -13 20 3 0
13 -9 23 -20z m3595 -5 c13 -14 21 -25 18 -25 -2 0 -15 11 -28 25 -13 14 -21
25 -18 25 2 0 15 -11 28 -25z m-4919 5 c36 -20 15 -89 -28 -90 -37 -1 -58 70
-25 89 22 13 29 13 53 1z m3579 7 c0 -2 -12 -14 -27 -28 l-28 -24 24 28 c23
25 31 32 31 24z m-2175 -87 c10 -11 16 -20 13 -20 -3 0 -13 9 -23 20 -10 11
-16 20 -13 20 3 0 13 -9 23 -20z m154 -14 c-3 -3 -11 5 -18 17 -13 21 -12 21
5 5 10 -10 16 -20 13 -22z m1889 -80 c23 -6 42 -13 42 -16 0 -4 -18 -12 -40
-19 -22 -6 -40 -17 -41 -24 0 -7 0 -32 0 -57 l1 -45 -32 38 c-34 38 -55 46
-76 25 -11 -11 -52 -20 -52 -11 0 2 11 20 24 41 l24 38 -29 35 c-37 44 -36 50
3 38 54 -15 66 -11 90 31 l23 39 10 -52 c10 -51 11 -52 53 -61z m1552 89 c13
-14 21 -25 18 -25 -2 0 -15 11 -28 25 -13 14 -21 25 -18 25 2 0 15 -11 28 -25z
m-1500 12 c0 -2 -12 -14 -27 -28 l-28 -24 24 28 c23 25 31 32 31 24z m588 -30
c2 -12 -3 -17 -17 -17 -15 0 -21 6 -21 21 0 25 33 22 38 -4z m-2603 -57 c10
-11 16 -20 13 -20 -3 0 -13 9 -23 20 -10 11 -16 20 -13 20 3 0 13 -9 23 -20z
m3595 -5 c13 -14 21 -25 18 -25 -2 0 -15 11 -28 25 -13 14 -21 25 -18 25 2 0
15 -11 28 -25z m-9232 -7 c28 -28 7 -78 -33 -78 -12 0 -26 5 -33 12 -7 7 -12
21 -12 33 0 12 5 26 12 33 7 7 21 12 33 12 12 0 26 -5 33 -12z m5206 -24 c23
-22 20 -61 -5 -74 -52 -28 -102 28 -64 70 22 24 48 26 69 4z m511 -44 c10 -11
16 -20 13 -20 -3 0 -13 9 -23 20 -10 11 -16 20 -13 20 3 0 13 -9 23 -20z
m3595 -5 c13 -14 21 -25 18 -25 -2 0 -15 11 -28 25 -13 14 -21 25 -18 25 2 0
15 -11 28 -25z m80 -80 c13 -14 21 -25 18 -25 -2 0 -15 11 -28 25 -13 14 -21
25 -18 25 2 0 15 -11 28 -25z m-1980 12 c0 -2 -12 -14 -27 -28 l-28 -24 24 28
c23 25 31 32 31 24z m-6415 -43 c19 -20 16 -63 -6 -77 -26 -16 -68 0 -75 29
-12 48 46 83 81 48z m1003 -166 c32 -32 -5 -92 -49 -81 -29 8 -44 45 -30 72
13 23 59 29 79 9z m1807 -43 c0 -28 -29 -25 -33 3 -3 19 0 23 15 20 10 -2 18
-12 18 -23z m5116 15 c22 -12 26 -59 7 -78 -15 -15 -51 -15 -66 0 -17 17 -15
54 4 72 18 19 28 20 55 6z"/>
<path d="M10521 6028 c-60 -32 -107 -88 -125 -149 -20 -66 -20 -94 0 -151 34
-101 126 -168 232 -169 77 -1 133 23 185 81 61 68 84 163 57 236 l-11 28 -125
-125 c-87 -87 -124 -130 -122 -144 2 -15 -3 -20 -22 -20 -14 0 -31 5 -37 11
-7 7 -18 14 -25 16 -8 3 -13 37 -16 104 -3 82 0 109 17 159 25 72 50 95 103
95 l39 0 -26 -42 c-47 -76 -58 -110 -58 -188 -1 -128 1 -127 146 18 l128 128
-33 41 c-50 63 -99 86 -188 90 -63 3 -82 0 -119 -19z"/>
<path d="M4629 5350 c-98 -17 -192 -87 -238 -177 -28 -56 -45 -154 -38 -227
19 -200 150 -326 341 -326 88 0 148 17 209 58 160 111 189 394 57 561 -69 88
-205 133 -331 111z"/>
<path d="M6906 5118 c-59 -16 -131 -91 -150 -157 -50 -170 32 -327 187 -356
42 -8 110 2 102 15 -3 4 3 6 12 4 35 -9 110 62 138 130 23 54 19 180 -6 236
-11 25 -30 56 -42 68 -53 57 -159 83 -241 60z m-121 -228 c10 -11 16 -20 13
-20 -3 0 -13 9 -23 20 -10 11 -16 20 -13 20 3 0 13 -9 23 -20z m55 -55 c13
-14 21 -25 18 -25 -2 0 -15 11 -28 25 -13 14 -21 25 -18 25 2 0 15 -11 28 -25z
m80 -80 c13 -14 21 -25 18 -25 -2 0 -15 11 -28 25 -13 14 -21 25 -18 25 2 0
15 -11 28 -25z m80 -80 c13 -14 21 -25 18 -25 -2 0 -15 11 -28 25 -13 14 -21
25 -18 25 2 0 15 -11 28 -25z"/>
<path d="M5770 5115 c-91 -41 -136 -127 -134 -255 3 -128 57 -220 149 -250 49
-16 149 -9 173 13 10 9 21 15 23 12 3 -3 21 12 40 32 19 21 25 31 14 23 -13
-9 -10 -3 7 15 38 43 50 80 50 166 0 68 -3 84 -32 137 -45 85 -89 114 -183
119 -51 2 -82 -1 -107 -12z"/>
<path d="M7203 3419 l-62 -94 61 -3 c33 -2 62 -1 65 1 2 3 2 46 1 97 l-3 93
-62 -94z"/>
<path d="M7579 3511 c-23 -18 -24 -25 -24 -126 0 -101 1 -108 24 -126 35 -29
88 -22 115 14 30 41 30 183 0 224 -27 36 -80 43 -115 14z"/>
<path d="M8031 3422 c-28 -43 -51 -84 -51 -90 0 -8 19 -12 55 -12 l55 0 0 90
c0 50 -2 90 -4 90 -2 0 -27 -35 -55 -78z"/>
<path d="M6094 3504 c-16 -8 -38 -28 -48 -44 -21 -36 -23 -117 -4 -156 43 -89
171 -95 232 -11 27 37 28 120 1 164 -34 58 -116 79 -181 47z"/>
<path d="M5230 3482 c0 -28 -3 -57 -6 -66 -5 -14 3 -16 53 -16 67 0 93 17 93
61 0 44 -22 62 -84 67 l-56 4 0 -50z"/>
<path d="M5640 3466 l0 -66 53 0 c63 0 87 19 87 67 0 41 -21 56 -86 61 l-54 4
0 -66z"/>
<path d="M6548 3470 c-1 -34 -1 -64 1 -66 2 -2 28 -4 57 -4 43 0 56 4 68 22
39 55 11 99 -67 106 l-55 4 -4 -62z"/>
<path d="M3369 2526 c-139 -37 -254 -165 -266 -295 -12 -131 55 -220 187 -252
l35 -8 180 177 180 177 -167 -170 c-93 -94 -168 -174 -168 -178 0 -4 17 -5 38
-2 138 23 262 125 302 249 64 197 -108 360 -321 302z m-117 -229 c7 -54 22
-96 39 -107 4 -3 11 -18 14 -33 6 -23 4 -27 -13 -27 -71 0 -131 144 -86 208
24 35 38 22 46 -41z"/>
<path d="M12170 2185 c-9 -11 -10 -15 -1 -15 7 0 19 7 27 15 13 13 13 15 1 15
-8 0 -20 -7 -27 -15z"/>
<path d="M10479 1863 c-13 -16 -12 -17 4 -4 16 13 21 21 13 21 -2 0 -10 -8
-17 -17z"/>
</g>
</svg>
