<svg width="122" height="230" viewBox="0 0 122 230" fill="none" xmlns="http://www.w3.org/2000/svg">
<path d="M67.8368 230C67.8368 230 88.6854 210.477 82.5694 184.757C82.5694 184.757 88.4332 185.843 88.4332 192.925C88.4332 192.925 91.9985 180.324 81.2454 169.693C69.6997 158.276 63.9641 156 63.9641 156C63.9641 156 76.454 182.555 65.2391 192.166C54.0236 201.777 41.2787 175.98 46.6311 160.3C46.6311 160.3 35.9407 173.295 38.355 189.306C40.7693 205.316 74.0038 201.068 67.8368 230Z" fill="url(#paint0_radial_13:301)"/>
<path d="M52.8193 155.386C52.8193 155.386 38.0347 161.486 41.5366 181.691C41.5366 181.691 42.3151 177.498 43.4821 177.879C44.6492 178.26 45.427 196.558 60.2123 199.99C74.997 203.421 75.3855 210.664 72.2736 216C72.2736 216 84.3348 202.277 76.164 181.31C76.164 181.31 77.3318 176.736 82 179.404C82 179.404 69.1603 147 52.8193 155.386Z" fill="url(#paint1_radial_13:301)"/>
<path d="M60.172 187C68.7924 180.642 71.1968 153.219 55.7304 156.23C38.7504 159.536 59.1266 175.302 60.172 187Z" fill="url(#paint2_radial_13:301)"/>
<path d="M61 107L84.3827 168.5H37.6173L61 107Z" fill="#BECED5"/>
<mask id="mask0_13:301" style="mask-type:alpha" maskUnits="userSpaceOnUse" x="7" y="0" width="108" height="161">
<path d="M7.4905 101.507C5.05339 124.306 12.4905 160.007 12.4905 160.007H108.99C108.99 160.007 116.875 122.431 113.99 98.5073C108.773 55.2313 88.9905 0.761126 61.4905 0.00732113C33.9905 -0.746484 12.2628 56.8628 7.4905 101.507Z" fill="#C4C4C4"/>
</mask>
<g mask="url(#mask0_13:301)">
<rect x="7" width="108" height="160" fill="url(#paint3_linear_13:301)"/>
<ellipse cx="61" cy="-3" rx="100" ry="50" fill="url(#paint4_linear_13:301)"/>
<circle cx="61" cy="98" r="30" fill="url(#paint5_linear_13:301)"/>
<circle cx="61" cy="98" r="23" fill="url(#paint6_linear_13:301)"/>
</g>
<path d="M0.167739 150C1.66773 145.5 28.1677 140.682 30.1677 142.5C32.1677 144.318 31.1677 169.382 30.1677 170C29.1677 170.618 16.1677 167.5 13.1677 170C10.1677 172.5 11.6678 202.5 9.66774 202.5C7.66773 202.5 -1.33225 154.5 0.167739 150Z" fill="url(#paint7_linear_13:301)"/>
<path d="M121.155 149.894C119.655 145.394 93.1546 140.576 91.1547 142.394C89.1547 144.212 90.1546 169.276 91.1547 169.894C92.1547 170.512 105.155 167.394 108.155 169.894C111.155 172.394 109.655 202.394 111.655 202.394C113.655 202.394 122.655 154.394 121.155 149.894Z" fill="url(#paint8_linear_13:301)"/>
<defs>
<radialGradient id="paint0_radial_13:301" cx="0" cy="0" r="1" gradientUnits="userSpaceOnUse" gradientTransform="translate(72.398 243.367) rotate(-101.632) scale(91.5757 92.2372)">
<stop stop-color="#FBCE20"/>
<stop offset="0.994898" stop-color="#F7980F"/>
<stop offset="1" stop-color="#F7980F"/>
</radialGradient>
<radialGradient id="paint1_radial_13:301" cx="0" cy="0" r="1" gradientUnits="userSpaceOnUse" gradientTransform="translate(96.4942 328.398) rotate(-101.775) scale(185.102 188.601)">
<stop stop-color="#F8A10E"/>
<stop offset="0.994898" stop-color="#F46F1A"/>
<stop offset="1" stop-color="#F46F1A"/>
</radialGradient>
<radialGradient id="paint2_radial_13:301" cx="0" cy="0" r="1" gradientUnits="userSpaceOnUse" gradientTransform="translate(73.3632 243.199) rotate(-101.85) scale(91.5905 93.8813)">
<stop stop-color="#F36618"/>
<stop offset="0.994898" stop-color="#EF2F26"/>
<stop offset="1" stop-color="#EF2F26"/>
</radialGradient>
<linearGradient id="paint3_linear_13:301" x1="61" y1="45.5" x2="61" y2="160" gradientUnits="userSpaceOnUse">
<stop stop-color="#DDE7EC"/>
<stop offset="1" stop-color="#CBD8DD"/>
</linearGradient>
<linearGradient id="paint4_linear_13:301" x1="89" y1="18" x2="23" y2="40.5" gradientUnits="userSpaceOnUse">
<stop stop-color="#F24B90"/>
<stop offset="1" stop-color="#EF2D69"/>
</linearGradient>
<linearGradient id="paint5_linear_13:301" x1="89" y1="92.5" x2="34" y2="103.5" gradientUnits="userSpaceOnUse">
<stop stop-color="#F24B90"/>
<stop offset="1" stop-color="#EF2D69"/>
</linearGradient>
<linearGradient id="paint6_linear_13:301" x1="84" y1="92.5" x2="38" y2="100.5" gradientUnits="userSpaceOnUse">
<stop stop-color="#4C3093"/>
<stop offset="1" stop-color="#332969"/>
</linearGradient>
<linearGradient id="paint7_linear_13:301" x1="49.5" y1="162" x2="-4.5" y2="199" gradientUnits="userSpaceOnUse">
<stop stop-color="#F24A8F"/>
<stop offset="1" stop-color="#EF2D69"/>
</linearGradient>
<linearGradient id="paint8_linear_13:301" x1="121" y1="159" x2="67" y2="198.5" gradientUnits="userSpaceOnUse">
<stop stop-color="#F24A8F"/>
<stop offset="1" stop-color="#EF2D69"/>
</linearGradient>
</defs>
</svg>
